# xmcd CD database file
# Copyright (C) 1993-1997  Ti Kan
#
# Track frame offsets:
#	197
#	16830
#	31275
#	47632
#	66645
#	81577
#	93540
#	115522
#	134932
#	146790
#	169640
#
# Disc length: 2503 seconds
#
# Revision: 1
# Processed by: cddbd v1.4b41PL1 Copyright (c) Steve Scherf et al.
# Submitted via: xmcd 2.1 PL1
#
DISCID=9f09c50b
DTITLE=Bobby Radcliff - Dresses Too Short
DYEAR=1900
DGENRE=
TTITLE0=Ugh!
TTITLE1=Bonehead
TTITLE2=Stick Around
TTITLE3=You Haven't Hurt Me
TTITLE4=Going Home Tomorrow
TTITLE5=Next Woman I Marry
TTITLE6=Dresses Too Short
TTITLE7=Keep Loving Me Baby
TTITLE8=Alimony Blues
TTITLE9=Hard Road To Travel
TTITLE10=Kool And The Gang
EXTD=
EXTT0=
EXTT1=
EXTT2=
EXTT3=
EXTT4=
EXTT5=
EXTT6=
EXTT7=
EXTT8=
EXTT9=
EXTT10=
PLAYORDER=
